inDegrees=no
num_controls=7
num_derivatives=13
num_iterations=112
num_multipliers=7
num_parameters=0
num_slacks=7
num_states=26
objective=5.456861
objective_accelerations=0.512880
objective_balance=0.016798
objective_effort=0.417632
objective_height=4.457540
objective_ligament=0.052011
solver_duration=945.553407
status=Solve_Succeeded
success=true
DataType=double
version=3
OpenSimVersion=4.4-2022-07-23-0e9fedc
endheader
time	/jointset/ground_pelvis/pelvis_tilt/value	/jointset/ground_pelvis/pelvis_tx/value	/jointset/ground_pelvis/pelvis_ty/value	/jointset/hip_r/hip_flexion_r/value	/jointset/hip_r/hip_adduction_r/value	/jointset/hip_r/hip_rotation_r/value	/jointset/back/lumbar_extension/value	/jointset/patellofemoral_r/patellar_flexion_r/value	/jointset/knee_r/knee_flexion_r/value	/jointset/knee_r/knee_adduction_r/value	/jointset/knee_r/knee_rotation_r/value	/jointset/ankle_r/ankle_angle_r/value	/jointset/subtalar_r/subtalar_angle_r/value	/jointset/ground_pelvis/pelvis_tilt/speed	/jointset/ground_pelvis/pelvis_tx/speed	/jointset/ground_pelvis/pelvis_ty/speed	/jointset/hip_r/hip_flexion_r/speed	/jointset/hip_r/hip_adduction_r/speed	/jointset/hip_r/hip_rotation_r/speed	/jointset/back/lumbar_extension/speed	/jointset/patellofemoral_r/patellar_flexion_r/speed	/jointset/knee_r/knee_flexion_r/speed	/jointset/knee_r/knee_adduction_r/speed	/jointset/knee_r/knee_rotation_r/speed	/jointset/ankle_r/ankle_angle_r/speed	/jointset/subtalar_r/subtalar_angle_r/speed	/forceset/tau_hip_flexion_r	/forceset/tau_hip_adduction_r	/forceset/tau_hip_rotation_r	/forceset/tau_knee_flexion_r	/forceset/tau_ankle_angle_r	/forceset/tau_subtalar_angle_r	/forceset/tau_lumbar_extension	lambda_cid13_p0	lambda_cid14_p0	lambda_cid14_p1	lambda_cid14_p2	lambda_cid14_p3	lambda_cid14_p4	lambda_cid14_p5	/jointset/ground_pelvis/pelvis_tilt/accel	/jointset/ground_pelvis/pelvis_tx/accel	/jointset/ground_pelvis/pelvis_ty/accel	/jointset/hip_r/hip_flexion_r/accel	/jointset/hip_r/hip_adduction_r/accel	/jointset/hip_r/hip_rotation_r/accel	/jointset/back/lumbar_extension/accel	/jointset/patellofemoral_r/patellar_flexion_r/accel	/jointset/knee_r/knee_flexion_r/accel	/jointset/knee_r/knee_adduction_r/accel	/jointset/knee_r/knee_rotation_r/accel	/jointset/ankle_r/ankle_angle_r/accel	/jointset/subtalar_r/subtalar_angle_r/accel	gamma_cid13_p0	gamma_cid14_p0	gamma_cid14_p1	gamma_cid14_p2	gamma_cid14_p3	gamma_cid14_p4	gamma_cid14_p5
0.5	-0.120113251359841	0.04090396315222982	0.8224012396760941	0.8173404356327575	-0.2358962854348969	-0.1017433703475967	-0.6381948498641585	0.9064702339834216	0.9064702339834364	0.007411001240240916	0.1745282401768126	0.2914189179134531	0.1170133230908428	-0.3103519523231064	-0.1854035699757787	-0.4345656790136148	1.672595912538792	-0.03225563471804498	0.3243169016597715	-0.740931511886622	1.804549479034657	1.804549479034658	-0.2504596794202426	4.529255469025597e-06	0.526423714276276	0.1413480142155846	-0.1848717293004387	0.004010505433071554	0.02431224080093724	-0.276409387607424	-0.0177383825779831	-0.003047957554180818	0.2317119222495115	-10.70834876170663	-48.37326679456469	-7.563984908739569	-0.9188446057794633	-1.652545785585673	-643.8865663327543	63.0717223784382	0.2284216953132311	0.4915210511307132	-0.3558799995003092	-1.150156504005811	-0.07052971837269766	-0.1735378633952441	1.660828562999377	-1.29726319346285	-1.297263193462972	0.6974142350456548	-0.03276931844568691	-0.5087430212322529	-0.17470872670088	-1.931994512088257e-08	1.06937916334181e-07	1.443448376916413e-06	6.257259261234917e-07	-2.120852498787246e-07	-2.935148841117038e-08	8.891381936952714e-07
0.51	-0.1232047905758728	0.03907468507837093	0.8180387617408816	0.8340064576813681	-0.2362224307971995	-0.09851085638559955	-0.6455202544622471	0.9244481567128258	0.9244481567128537	0.004940496551378375	0.174528271102573	0.2966568514565507	0.1184176246757704	-0.3079055674836522	-0.1804346336248515	-0.4378324505682132	1.660378783360672	-0.03296361888977338	0.3221925995868989	-0.7240554184106388	1.790788146844609	1.790788146844611	-0.2436093754230338	-5.28185862058985e-06	0.5210889979177655	0.1394924137885452	-0.1908263746907274	0.004991449853843543	0.02451148601319943	-0.2805994235534384	-0.01925369096208323	-0.002438674810317296	0.2373225270104542	-9.754370580810619	-49.10231172532744	-7.528157519248995	-0.8090379892213124	-1.557219873646018	-648.2114313785081	63.4249132932727	0.2603073901970842	0.50214975901491	-0.2974635502921765	-1.291933774307811	-0.0692842160166672	-0.2309060512138246	1.7150981375597	-1.452602036420236	-1.452602036420203	0.6838206545273587	0.01402535067350059	-0.5569748315180553	-0.1936755398865641	-2.440453037797148e-08	1.042771548531356e-07	1.498438866713147e-06	5.794687758466978e-07	-2.168606208835338e-07	-3.712899511915833e-08	9.590309625724546e-07
0.52	-0.1262703538410994	0.03729561033440833	0.8136465385267532	0.8505434199083001	-0.2365553262910523	-0.09529939137879084	-0.6526740784460402	0.9422810593594202	0.9422810593594306	0.002539491336994348	0.1745280263888928	0.3018392100583952	0.1198028322885983	-0.3051567621667808	-0.1753629039965185	-0.4405147347968567	1.646783948198824	-0.03360566103926246	0.320107110634807	-0.7066153890281558	1.775545462468788	1.775545462468791	-0.2365597845270884	-5.059863014250926e-05	0.5153087260249541	0.1375292197942588	-0.1967810200810139	0.005972394274540956	0.0247107312255207	-0.284789459499437	-0.02076899934619749	-0.001829392066574207	0.2429331317714115	-8.808899826056203	-49.83358057457677	-7.490571274829223	-0.7019647235492403	-1.472358734819349	-652.5765935267858	63.79042614417862	0.2889057907963858	0.51207970661215	-0.2389825343092893	-1.425697700751536	-0.05734131392482552	-0.1657752392392966	1.773615744299307	-1.593533630617562	-1.593533630617585	0.737271614792754	-0.03987044993215713	-0.5978541280920389	-0.1962274401500604	-3.132449417409684e-08	1.064064636036466e-07	1.638085330167483e-06	5.64577630887517e-07	-2.32292780919501e-07	-4.712799192557449e-08	1.079681875075989e-06
0.53	-0.1293069199417868	0.03556771408476528	0.8092304603218193	0.8669375766735604	-0.2368943828520005	-0.09210911757193468	-0.6596509165805924	0.9599541603486996	0.9599541603487248	0.0002096663431794469	0.1745276123303255	0.3069615525428788	0.1211677597982821	-0.3021109664938895	-0.1702037261072155	-0.4426003764223598	1.631828119141948	-0.03418981607838725	0.3179267217807087	-0.6886741291616955	1.758835725609746	1.758835725609747	-0.2294078014833397	-3.045267366698154e-05	0.5090926850522236	0.1354476893644496	-0.2025262024719514	0.006911251355300077	0.02483996709379292	-0.2891960997026591	-0.02208881335460266	-0.001292231597707822	0.2483514664942231	-7.907085315248336	-50.51096880618459	-7.479224809189754	-0.5857388573494049	-1.385857802575583	-656.973717555019	64.12856130866749	0.3192533635645002	0.5196817247263092	-0.1782859875056823	-1.563402695569664	-0.056395209530524	-0.2473743271916369	1.816097415537027	-1.745538188512046	-1.745538188512596	0.7040056491794081	0.02338102465495379	-0.6435897978189637	-0.2150705807895469	-4.685126157649171e-08	8.222494815136241e-08	1.577004213058825e-06	3.617086172064656e-07	-2.136939166114598e-07	-6.269316859551246e-08	1.063502764502701e-06
0.54	-0.1323116607041151	0.03389177859294133	0.804796539498464	0.883175599710787	-0.2372387694854117	-0.08894128837741362	-0.6664459988549342	0.977452995074411	0.9774529950744272	-0.002048670020175947	0.1745274845125475	0.3120197124744465	0.122511681056396	-0.2987916944998489	-0.1649707524326987	-0.4440832584811903	1.615557202588489	-0.03467167554250843	0.315618188178756	-0.670264216986506	1.740692209752125	1.740692209752124	-0.2222620584390723	6.649531512479032e-06	0.5024722154412805	0.1333279694789098	-0.2082713848629091	0.007850108436031617	0.02496920296216383	-0.2936027399058678	-0.02340862736300846	-0.0007550711288945956	0.2537698012170232	-7.057826539001173	-51.18791573877409	-7.4620777373232	-0.4769744025305175	-1.319757048459983	-661.3787494942334	64.48525283887918	0.3436010550259229	0.5268388636551358	-0.1184306209747622	-1.688715200068372	-0.0368821989240958	-0.191404188810392	1.867346206045065	-1.880289430333578	-1.880289430333484	0.7360236148962228	-0.03647920019137664	-0.6787398557341986	-0.2038653312959648	-7.190044999007848e-08	2.893358464492159e-08	1.293841517454939e-06	-4.913591080516846e-08	-1.574437062206853e-07	-8.4416671922964e-08	8.959372454188857e-07
